<svg width="48" height="48" viewBox="0 0 48 48" fill="none" xmlns="http://www.w3.org/2000/svg">
<g clip-path="url(#clip0_19324_416648)">
<path d="M38.3317 8.02507C38.1855 6.7646 37.0712 5.86948 35.8107 6.01563L33.5273 6.27137C32.2851 6.41751 31.3717 7.53184 31.5178 8.79231L35.0252 39.8474C35.1531 41.0165 36.1578 41.8751 37.3087 41.8751C37.3817 41.8751 37.4731 41.8751 37.5644 41.8751L39.8661 41.6193C40.469 41.5463 41.017 41.254 41.4006 40.779C41.7842 40.3041 41.9487 39.7012 41.8756 39.0984L38.3682 8.04334L38.3317 8.02507Z" fill="#d5b775"/>
<path d="M27.5719 6.32617H22.0916C20.3379 6.32617 18.8948 7.76932 18.8948 9.52302V13.6332H30.7688V9.52302C30.7688 7.76932 29.3256 6.32617 27.5719 6.32617Z" fill="#0E1D31"/>
<path d="M18.8948 38.7509C18.8948 40.5046 20.3379 41.9478 22.0916 41.9478H27.5719C29.3256 41.9478 30.7688 40.5046 30.7688 38.7509V16.373H18.8948V38.7509Z" fill="#0E1D31"/>
<path d="M6.10742 38.7509C6.10742 40.5046 7.55057 41.9478 9.30427 41.9478H14.7846C16.5383 41.9478 17.9814 40.5046 17.9814 38.7509V16.373H6.10742V38.7509Z" fill="#0E1D31"/>
<path d="M14.7846 6.32617H9.30427C7.55057 6.32617 6.10742 7.76932 6.10742 9.52302V13.6332H17.9814V9.52302C17.9814 7.76932 16.5383 6.32617 14.7846 6.32617Z" fill="#0E1D31"/>
</g>
<defs>
<clipPath id="clip0_19324_416648">
<rect width="36" height="36" fill="white" transform="translate(6 6)"/>
</clipPath>
</defs>
</svg>
