<svg width="48" height="48" viewBox="0 0 48 48" fill="#d5b775" xmlns="http://www.w3.org/2000/svg">
<g clip-path="url(#clip0_19324_416645)">
<rect x="6" y="6.89453" width="36" height="14.489" rx="2" fill="#d5b775"/>
<path d="M36.3395 30.9449C36.268 30.8304 36.2823 30.716 36.3109 30.6588C36.3252 30.6016 36.3681 30.5015 36.4968 30.4443L39.3427 28.9856C40.1149 28.5852 40.6154 27.8416 40.7012 26.9692C40.787 26.0969 40.4009 25.2675 39.7002 24.7526L26.0144 14.5562C25.3708 14.0843 24.5271 13.9985 23.812 14.3703C23.097 14.7278 22.6537 15.4428 22.6537 16.2437V34.234C22.6537 35.1064 23.097 35.9072 23.8549 36.3648C24.5986 36.8225 25.5138 36.8511 26.3004 36.4506L29.2606 34.9348C29.4322 34.849 29.6324 34.9062 29.7326 35.0778L33.1933 40.9697C33.4794 41.4702 33.9656 41.8277 34.5233 41.9564C34.6663 41.985 34.8236 41.9993 34.9666 41.9993C35.3813 41.9993 35.7961 41.8706 36.1536 41.6275L39.1281 39.5968C40.0434 38.9676 40.3294 37.7234 39.7717 36.7653L36.3538 30.9305L36.3395 30.9449Z" fill="#0E1D31"/>
</g>
<defs>
<clipPath id="clip0_19324_416645">
<rect width="36" height="36" fill="white" transform="translate(6 6)"/>
</clipPath>
</defs>
</svg>
