<svg width="48" height="48" viewBox="0 0 48 48" fill="none" xmlns="http://www.w3.org/2000/svg">
<g clip-path="url(#clip0_19324_416646)">
<rect x="9.23071" y="11.0762" width="27.6923" height="25.8462" fill="#d5b775"/>
<path d="M31.3846 25.3848H30.9231V30.0002H31.3846C32.6585 30.0002 33.6923 28.9663 33.6923 27.6925C33.6923 26.4186 32.6585 25.3848 31.3846 25.3848Z" fill="#d5b775"/>
<path d="M14.3077 27.6925C14.3077 28.9663 15.3416 30.0002 16.6154 30.0002H17.077V25.3848H16.6154C15.3416 25.3848 14.3077 26.4186 14.3077 27.6925Z" fill="#d5b775"/>
<path d="M31.3846 6H16.6154C10.7631 6 6 10.7631 6 16.6154V31.3846C6 37.2369 10.7631 42 16.6154 42H31.3846C37.2369 42 42 37.2369 42 31.3846V16.6154C42 10.7631 37.2369 6 31.3846 6ZM32.7692 32.5477V33.2308C32.7692 35.0031 31.3108 36.4615 29.5385 36.4615H25.8462C25.0892 36.4615 24.4615 35.8338 24.4615 35.0769C24.4615 34.32 25.0892 33.6923 25.8462 33.6923H29.5385C29.7969 33.6923 30 33.4892 30 33.2308V32.7692H29.5385C28.7815 32.7692 28.1538 32.1415 28.1538 31.3846V24C28.1538 23.2431 28.7815 22.6154 29.5385 22.6154H30V22.1538C30 18.8492 27.3046 16.1538 24 16.1538C20.6954 16.1538 18 18.8492 18 22.1538V22.6154H18.4615C19.2185 22.6154 19.8462 23.2431 19.8462 24V31.3846C19.8462 32.1415 19.2185 32.7692 18.4615 32.7692H16.6154C13.8092 32.7692 11.5385 30.4985 11.5385 27.6923C11.5385 25.3846 13.1077 23.4462 15.2308 22.8369V22.1538C15.2308 17.3169 19.1631 13.3846 24 13.3846C28.8369 13.3846 32.7692 17.3169 32.7692 22.1538V22.8369C34.8923 23.4462 36.4615 25.3846 36.4615 27.6923C36.4615 30 34.8923 31.9385 32.7692 32.5477Z" fill="#0E1D31"/>
</g>
<defs>
<clipPath id="clip0_19324_416646">
<rect width="36" height="36" fill="white" transform="translate(6 6)"/>
</clipPath>
</defs>
</svg>
