<svg width="48" height="48" viewBox="0 0 48 48" fill="none" xmlns="http://www.w3.org/2000/svg">
<g clip-path="url(#clip0_19324_416647)">
<path d="M37.2587 12.6338C38.738 12.8372 39.8845 14.0392 40.0325 15.537C40.4208 19.3094 40.6057 28.8144 34.0595 35.9523C31.6001 38.6337 28.5489 40.6123 24.9984 41.8328C24.6655 41.9438 24.3327 41.9992 23.9998 41.9992C23.667 41.9992 23.3341 41.9438 23.0013 41.8328C19.4508 40.6123 16.3996 38.6337 13.9401 35.9523C7.4124 28.8144 7.57883 19.2909 7.96717 15.537C8.1151 14.0392 9.26161 12.8372 10.741 12.6338C12.6272 12.3749 14.4579 11.8201 16.1777 11.0065C18.2488 10.0264 20.1165 8.67646 21.7623 6.99368C22.9643 5.75471 25.0354 5.75471 26.2374 6.99368C27.8832 8.67646 29.7509 10.0264 31.822 11.0065C33.5418 11.8201 35.3725 12.3749 37.2587 12.6338Z" fill="#0E1D31"/>
</g>
<path d="M22.7415 22.105C22.7415 22.105 22.7742 22.105 22.7905 22.105C23.1828 22.1377 23.5832 22.1541 24 22.1541C24.4167 22.1541 24.8172 22.1377 25.2094 22.105C25.2258 22.105 25.2421 22.105 25.2585 22.105C28.2249 21.8354 30.3333 20.6341 30.3333 19.0977C30.3333 17.3489 27.612 16.0332 24 16.0332C20.3879 16.0332 17.6666 17.3489 17.6666 19.0977C17.6666 20.6341 19.775 21.8354 22.7415 22.105Z" fill="#d5b775"/>
<path d="M24 23.3872C23.5668 23.3872 23.1256 23.3708 22.6843 23.33C20.4778 23.1338 18.7453 22.4964 17.6666 21.5566V21.9571C17.6666 23.902 20.4451 25.4302 24 25.4302C27.5548 25.4302 30.3333 23.902 30.3333 21.9571V21.5648C29.2628 22.4964 27.5385 23.1338 25.3647 23.33C24.8744 23.3708 24.4331 23.3872 24 23.3872Z" fill="#d5b775"/>
<path d="M17.6666 24.5898V25.2273C17.6666 27.1722 20.4451 28.7004 24 28.7004C27.5548 28.7004 30.3333 27.1722 30.3333 25.2273V24.5898C29.0094 25.8565 26.7131 26.6574 24 26.6574C21.2868 26.6574 18.9905 25.8565 17.6666 24.5898Z" fill="#d5b775"/>
<path d="M17.6666 27.8574V28.4948C17.6666 30.4398 20.4451 31.968 24 31.968C27.5548 31.968 30.3333 30.4398 30.3333 28.4948V27.8574C29.0094 29.1241 26.7131 29.9249 24 29.9249C21.2868 29.9249 18.9905 29.1241 17.6666 27.8574Z" fill="#d5b775"/>
<defs>
<clipPath id="clip0_19324_416647">
<rect width="36" height="36" fill="white" transform="translate(6 6)"/>
</clipPath>
</defs>
</svg>
