<svg width="36" height="36" viewBox="0 0 36 36" fill="none" xmlns="http://www.w3.org/2000/svg">
<g clip-path="url(#clip0_19574_7422)">
<path d="M27.7297 16.5405C32.2973 16.5405 36 12.8378 36 8.27027C36 3.70273 32.2973 0 27.7297 0C23.1622 0 19.4595 3.70273 19.4595 8.27027C19.4595 12.8378 23.1622 16.5405 27.7297 16.5405Z" fill="#0E1D31"/>
<path d="M8.27027 35.9995C12.8378 35.9995 16.5405 32.2968 16.5405 27.7293C16.5405 23.1617 12.8378 19.459 8.27027 19.459C3.70273 19.459 0 23.1617 0 27.7293C0 32.2968 3.70273 35.9995 8.27027 35.9995Z" fill="#0E1D31"/>
<path d="M32.5946 19.459C31.7967 19.459 31.1351 20.1206 31.1351 20.9184V22.8644C31.1351 25.2774 29.1697 27.2428 26.7567 27.2428H26.387L27.7881 25.8417C28.3524 25.2774 28.3524 24.3433 27.7881 23.779C27.2238 23.2147 26.2897 23.2147 25.7254 23.779L21.8335 27.6709C21.6973 27.8071 21.5805 27.9822 21.5222 28.1379C21.4443 28.313 21.4054 28.4882 21.4054 28.7022C21.4054 28.9163 21.4443 29.0914 21.5222 29.2666C21.6 29.4417 21.6973 29.5974 21.8335 29.7336L25.7254 33.6255C26.0173 33.9174 26.387 34.0536 26.7567 34.0536C27.1265 34.0536 27.4962 33.9174 27.7881 33.6255C28.3524 33.0611 28.3524 32.1271 27.7881 31.5628L26.387 30.1617H26.7567C30.7849 30.1617 34.054 26.8925 34.054 22.8644V20.9184C34.054 20.1206 33.3924 19.459 32.5946 19.459Z" fill="#d5b775"/>
<path d="M3.40538 16.5409C4.20322 16.5409 4.86484 15.8793 4.86484 15.0814V13.1355C4.86484 10.7225 6.83025 8.75712 9.24322 8.75712H9.61295L8.21187 10.1582C7.64754 10.7225 7.64754 11.6566 8.21187 12.2209C8.50376 12.5128 8.87349 12.649 9.24322 12.649C9.61295 12.649 9.98268 12.5128 10.2746 12.2209L14.1665 8.32901C14.3027 8.19279 14.4194 8.01766 14.4778 7.86198C14.5557 7.68685 14.5946 7.51171 14.5946 7.29766C14.5946 7.0836 14.5557 6.90847 14.4778 6.73333C14.4 6.5582 14.3027 6.40252 14.1665 6.26631L10.2746 2.37442C9.71025 1.81009 8.77619 1.81009 8.21187 2.37442C7.64754 2.93874 7.64754 3.87279 8.21187 4.43712L9.61295 5.8382H9.24322C5.21511 5.8382 1.94592 9.10739 1.94592 13.1355V15.0814C1.94592 15.8793 2.60754 16.5409 3.40538 16.5409Z" fill="#d5b775"/>
</g>
<defs>
<clipPath id="clip0_19574_7422">
<rect width="36" height="36" fill="white"/>
</clipPath>
</defs>
</svg>
